<?xml version="1.0" encoding="utf-8"?>
<!-- Generator: Adobe Illustrator 19.0.0, SVG Export Plug-In . SVG Version: 6.00 Build 0)  -->
<svg version="1.1" id="Laag_1" xmlns="http://www.w3.org/2000/svg" xmlns:xlink="http://www.w3.org/1999/xlink" x="0px" y="0px"
	 viewBox="0 0 273.1 65.1" style="enable-background:new 0 0 273.1 65.1;" xml:space="preserve">
<style type="text/css">
	.st0{fill:#5B92F9;}
	.st1{fill:#52AE32;}
	.st2{fill:#63CB6C;}
	.st3{fill:#FFDD00;}
	.st4{fill:#333333;}
</style>
<path class="st0" d="M226.1,64.6h-18.2c0,0,8.9-23.6,27.8-34.7l5.6-29.3h-21.4l-12.1,64.2H229l2-10.7
	C227.8,59.9,226.1,64.6,226.1,64.6"/>
<path class="st1" d="M213.1,54l3.8-26.2h-0.7c-0.7,0.2-1.2,0.2-1.2,0.2l0-0.2h-0.3l-6.9,36.6l0.2-0.1C208.3,63.5,210,59.4,213.1,54"
	/>
<path class="st2" d="M207.9,64.6c0,0,12.8-34,40.2-39.6c19.7-4,24.1,7,24.1,7s-10.1-5.7-24.6,3.3c-14.4,9.1-21.6,29.2-21.6,29.2
	H207.9z"/>
<path class="st0" d="M248.1,25c5.8-1.2,10.2-1.1,13.7-0.3l4.6-24.3H245l-5.1,27.3C242.4,26.5,245.2,25.6,248.1,25"/>
<path class="st0" d="M247.7,35.4c-4.5,2.8-8.2,6.7-11.3,10.7l-3.5,18.6h21.3l6.5-34.2C257,30.9,252.6,32.3,247.7,35.4"/>
<path class="st3" d="M219,5.3c0,0,5.1,2.8,5.5,6.4c0.1,0.6,0.1,0.3,0.5,0.3c1.1,0,5-2.6,5-2.6s0.3,8.5-5.4,14.4
	c-3.3,3.4-9.6,4.3-9.6,4.3L219,5.3z"/>
<path class="st4" d="M263.8,29.8c-5.4,0-10.9,1.8-16.4,5.2c-13.5,8.5-20.8,26.8-21.7,29.3h-17.3c1.8-4.4,14.7-33.8,39.7-39
	c2.8-0.6,5.5-0.9,8-0.9c9.6,0,13.7,4.5,15.1,6.7C269.9,30.6,267.3,29.8,263.8,29.8 M253.8,64.2h-20.5l3.4-17.8
	c3.1-4,6.8-7.9,11.2-10.7c4.1-2.6,8.2-4.2,12.3-4.8L253.8,64.2z M228.7,64.4h-2.1c0.4-1.1,1.6-4,3.5-7.6L228.7,64.4z M215.1,28.2
	c0.3-0.1,0.9-0.2,1.6-0.3l-3.8,25.9c-1.9,3.2-3.3,6-4.2,8L215.1,28.2z M219.3,5.9c1.3,0.8,4.6,3.1,4.9,5.8c0,0.1,0,0.2,0.1,0.4
	c-4.9,3.1-5.9,11.6-6,11.9c0,0.2,0.1,0.4,0.4,0.5c0,0,0,0,0.1,0c0.2,0,0.4-0.2,0.4-0.4c0-0.1,1.2-9.5,6.4-11.8c0,0,0,0,0,0
	c1.2-0.3,3.2-1.5,4.3-2.1c-0.1,2.2-0.8,8.6-5.5,13.2c-2.7,2.6-7.4,3.7-9.1,4l2.5-13.6L219.3,5.9z M220.2,1h20.6l-5.5,28.6
	c-9.7,5.8-16.7,14.8-21.3,22.3l3.5-24.3c2.2-0.6,5.3-1.7,7.3-3.7c6-5.8,5.8-14.2,5.8-14.5l0-0.7L230.1,9c-1.5,1-4.2,2.5-5,2.5
	c0,0-0.1,0-0.1,0c-0.4-3.3-4.5-5.9-5.6-6.5L220.2,1z M245.3,0.8h20.6l-4.5,23.3c-1.6-0.3-3.3-0.5-5.3-0.5c-2.5,0-5.3,0.3-8.2,0.9
	c-2.7,0.6-5.3,1.4-7.7,2.5L245.3,0.8z M272.7,31.9c-0.1-0.3-2.4-5.6-10.4-7.5L266.9,0h-22.3l-5.2,27.4c-1.1,0.5-2.1,1-3.1,1.6
	l5.5-28.9h-22.3l-0.8,4.4l0,0l-1.7,8.8l-9.3,49.5l-0.4,2.3l0,0h0h18.8h0.3h3l2.1-10.8c1.2-2,2.5-4.2,4.1-6.4l-3.2,17.1h22.2
	l6.5-34.2c0.9-0.1,1.8-0.2,2.8-0.2c5.1,0,8.2,1.7,8.3,1.7l1,0.6L272.7,31.9z"/>
<g>
	<path class="st4" d="M133.3,38.8c1.2-1.9,3.6-2.7,5.7-2.7c2,0,3.9,0.6,5.5,1.8c-0.4,0.6-0.8,1.2-1.1,1.8c-1-0.6-2.1-1.2-3.2-1.3
		c-1.5-0.2-3.3,0-4.4,1.2c-0.9,0.9-1,2.3-0.7,3.4c0.4,1.2,1.5,2,2.6,2.5c2.1,1,4.6,1.5,6.2,3.2c1.1,1,1.5,2.5,1.4,4
		c0,1.9-0.9,3.7-2.4,4.8c-1.4,1-3.1,1.3-4.7,1.3c-2.1,0-4.2-0.6-5.9-1.8c0.3-0.7,0.6-1.4,1-2.1c1.7,1.3,3.9,1.9,6,1.7
		c1-0.1,2-0.5,2.6-1.3c0.7-0.9,0.8-2.1,0.6-3.2c-0.2-1.1-1-1.9-1.9-2.4c-1.9-1.2-4.1-1.6-5.9-2.9c-1.3-0.9-2.2-2.4-2.3-4
		C132.2,41.4,132.5,40,133.3,38.8"/>
	<path class="st4" d="M118,38.7c1.1,0,2.2,0.1,3.3,0.5c1.4,0.6,2,2.2,2,3.6c0.1,1.7-0.9,3.4-2.4,4.1c-1.5,0.8-3.2,0.7-4.9,0.7
		c0-2.9,0-5.9,0-8.8C116.6,38.7,117.3,38.7,118,38.7 M116.6,36.5c-1,0-2.1,0-3.1,0c0,7.3,0,14.5,0,21.8c0.8,0,1.6,0,2.5,0
		c0-2.9,0-5.9,0-8.8c0.8,0,1.6,0,2.4,0c2,2.9,4,5.9,5.9,8.8c1,0,2.1,0,3.1,0c-2.2-3.1-4.5-6.3-6.7-9.4c1.9-0.6,3.7-1.8,4.6-3.7
		c0.7-1.7,0.9-3.7,0.2-5.4c-0.6-1.6-2.1-2.7-3.8-3C120.1,36.5,118.4,36.5,116.6,36.5"/>
	<path class="st4" d="M94.4,36.5h10.7c0,0.7,0,1.5,0,2.2c-2.8,0-5.5,0-8.3,0V46c2.4,0,4.8,0,7.3,0c0,0.7,0,1.4,0,2.1
		c-2.4,0-4.8,0-7.3,0c0,2.7,0,5.3,0,8c3.1,0,6.2,0,9.2,0c0,0.7,0,1.5,0,2.2H94.4C94.4,51.1,94.4,43.8,94.4,36.5"/>
	<path class="st4" d="M59.9,36.5c0.9,0,1.9,0,2.8,0c1.6,5.8,3.2,11.7,4.9,17.5c1.6-5.8,3.2-11.6,4.9-17.5c0.9,0,1.8,0,2.7,0
		c1.7,5.9,3.4,11.7,5.1,17.6c1.6-5.8,3-11.7,4.7-17.6c0.8,0,1.6,0,2.4,0c-1.8,7.3-3.8,14.5-5.7,21.8c-0.9,0-1.7,0-2.6,0
		c-1.8-5.9-3.5-11.7-5.3-17.6c-0.7,1.8-1.1,3.8-1.6,5.6c-1.1,4-2.2,8-3.3,12c-0.9,0-1.8,0-2.6,0C64,51.1,61.9,43.8,59.9,36.5"/>
	<path class="st4" d="M44.5,38.3c1.5,0,3,0.3,4.2,1.1c1.5,0.9,2.5,2.4,3.1,4c0.9,2.6,0.9,5.5,0,8c-0.6,1.7-1.8,3.2-3.3,4.1
		c-1.7,1.1-3.7,1.3-5.6,0.9c-2-0.4-3.8-1.7-4.8-3.5c-1.7-3.1-1.8-6.9-0.4-10.1c0.9-2.1,2.7-3.8,4.9-4.3
		C43.2,38.4,43.8,38.3,44.5,38.3 M44.5,36.1c-0.4,0-0.8,0-1.2,0.1c-3.8,0.4-7.1,3-8.5,6.5c-1.5,3.7-1.5,8.1,0.7,11.5
		c1.5,2.4,4,4,6.8,4.4c2.5,0.4,5.2,0.2,7.5-1.1c2.7-1.5,4.5-4.2,5.3-7.2c1-3.9,0.2-8.3-2.6-11.3C50.3,37,47.4,36,44.5,36.1"/>
	<path class="st4" d="M19.4,36.5c0.8,0,1.6,0,2.4,0c0,6.5,0,13.1,0,19.6c3.1,0,6.1,0,9.2,0c0,0.7,0,1.5,0,2.2c-3.9,0-7.8,0-11.6,0
		C19.4,51.1,19.4,43.8,19.4,36.5"/>
	<path class="st4" d="M0,36.5c3.7,0,7.5,0,11.2,0c0,0.7,0,1.5,0,2.2c-2.9,0-5.9,0-8.8,0c0,2.7,0,5.5,0,8.2c2.7,0,5.4,0,8.2,0
		c0,0.7,0,1.5,0,2.2c-2.7,0-5.5,0-8.2,0c0,3.1,0,6.1,0,9.2c-0.8,0-1.6,0-2.4,0C0,51.1,0,43.8,0,36.5"/>
</g>
<g>
	<path class="st0" d="M192.5,6.8c1.5,0,3,0,4.4,0c-2.7,3.4-5.5,6.8-8.2,10.2c2.9,3.9,6.1,7.6,9,11.5c-1.7,0-3.5,0-5.2,0
		c-2.8-3.6-5.6-7.3-8.3-10.9C187,14,189.7,10.4,192.5,6.8"/>
	<path class="st0" d="M179.7,6.8c1.4,0,2.8,0,4.1,0c0,7.3,0,14.5,0,21.8c-1.4,0-2.8,0-4.1,0C179.7,21.3,179.7,14,179.7,6.8"/>
	<path class="st0" d="M163.7,10.2c1.1,0,2.1,0.2,2.9,0.9c1.5,1.6,1.1,4.6-0.9,5.7c-1.2,0.7-2.6,0.6-3.9,0.6c0-2.4,0-4.7,0-7.1
		C162.4,10.3,163.1,10.2,163.7,10.2 M162.4,6.8c-1.5,0-3.1,0.1-4.6,0c0,7.3,0,14.5,0,21.8c1.4,0,2.7,0,4.1,0c0-2.6,0-5.3,0-7.9
		c0.3,0,0.7,0,1,0c1.8,2.6,3.6,5.3,5.4,7.9c1.7,0,3.5,0,5.2,0c-2.1-3-4.3-5.9-6.5-8.8c1.4-0.4,2.7-1.2,3.5-2.3c1.5-2,1.9-4.9,1-7.2
		c-0.7-1.8-2.6-2.9-4.5-3.2C165.4,6.8,163.9,6.8,162.4,6.8"/>
	<path class="st0" d="M138.3,28.6c0-7.3,0-14.5,0-21.8c3.9,0,7.8,0,11.7,0c0,1.2,0,2.3,0,3.5c-2.5,0-5.1,0-7.6,0c0,1.8,0,3.7,0,5.5
		c2.2,0,4.4,0,6.7,0c0,1.2,0,2.3,0,3.5c-2.2,0-4.4,0-6.7,0c0,1.9,0,3.8,0,5.8c2.8,0,5.5,0,8.3,0c0,1.2,0,2.3,0,3.5
		C146.7,28.6,142.5,28.6,138.3,28.6"/>
	<path class="st0" d="M126.2,8.4c0.4-0.5,0.8-1.1,1.3-1.6c1.5-0.1,3,0,4.5,0c-2.7,3.4-5.5,6.8-8.2,10.2c3,3.9,6.1,7.7,9,11.5
		c-1.8,0-3.5,0-5.3,0c-2.8-3.6-5.5-7.3-8.3-10.9C121.5,14.6,123.9,11.5,126.2,8.4"/>
	<path class="st0" d="M114.7,6.8c1.4,0,2.7,0,4.1,0c0,7.3,0,14.5,0,21.8c-1.4,0-2.8,0-4.1,0c0-6,0-12,0-18
		C114.7,9.3,114.6,8,114.7,6.8"/>
	<path class="st0" d="M99.7,6.7c2.7-0.6,5.7-0.4,8.1,1.1c-0.4,1.1-0.8,2.1-1.3,3.1c-1.5-0.9-3.2-1.5-5-1.2c-0.9,0.2-1.7,0.7-2,1.6
		c-0.3,1-0.1,2.1,0.7,2.8c1.7,1.5,4,1.7,5.9,3c1.3,0.8,2.3,2.1,2.5,3.6c0.3,2,0,4.3-1.4,5.9c-1.5,1.7-3.9,2.3-6.1,2.3
		c-2.1,0-4.4-0.4-6.2-1.7c0.4-1,0.8-2,1.2-3c1.1,0.6,2.3,1.3,3.6,1.4c1.3,0.2,3,0.1,3.9-1.1c0.8-1.2,0.6-3-0.6-3.8
		c-2.1-1.6-4.9-1.9-6.7-3.9C95,15.3,94.8,13,95.2,11C95.7,8.8,97.6,7.2,99.7,6.7"/>
	<path class="st0" d="M82.8,6.8c1.5,0,3.1,0,4.6,0c0.8,7.3,1.8,14.5,2.6,21.8c-1.4,0-2.8,0-4.3,0c-0.5-5-1-9.9-1.6-14.9
		c-1.9,5-3.9,9.9-5.8,14.9c-1.1,0-2.3,0-3.4,0c-1.6-3.8-3.1-7.7-4.6-11.6c-0.4-1-0.8-2-1.2-3.1c-0.6,4.9-1,9.8-1.5,14.6
		c-1.3,0-2.6,0-3.9,0c0.6-6.1,1.4-12.1,2.1-18.2C66,9.2,66,8,66.3,6.8c1.5,0,3.1,0,4.6,0c2.1,5.1,4,10.3,6,15.4
		C78.9,17.1,80.7,11.9,82.8,6.8"/>
	<path class="st0" d="M46,6.8c3.9,0,7.8,0,11.7,0c0,1.2,0,2.3,0,3.5c-2.5,0-5,0-7.6,0c0,1.8,0,3.7,0,5.5c2.2,0,4.4,0,6.6,0
		c0,1.2,0,2.3,0,3.5h-6.7c0,1.9,0,3.8,0,5.7c2.8,0,5.6,0,8.3,0v3.5c-4.2,0-8.3,0-12.5,0C46,21.3,46,14,46,6.8"/>
	<path class="st0" d="M26.4,6.8c3.9,0,7.8,0,11.7,0c0.1,1.2,0.1,2.3,0.1,3.5c-2.5,0-5.1,0-7.6,0c0,1.8,0,3.7,0,5.5
		c2.2,0,4.4,0,6.7,0c0,1.2,0,2.3,0,3.5c-2.2,0-4.4,0-6.7,0V25c2.8,0,5.6,0,8.4,0v3.5c-4.2,0-8.3,0-12.5,0
		C26.4,21.3,26.4,14,26.4,6.8"/>
	<path class="st0" d="M0,6.8c1.4,0,2.7,0,4.1,0c0,2.9,0,5.9,0,8.8c3.3,0,6.7,0,10,0c0-2.9,0-5.9,0-8.8c1.4,0,2.7,0,4.1,0
		c0,0.3,0.1,0.6,0.1,0.9c0,6.9,0,13.9,0,20.8c-1.4,0-2.8,0-4.1,0c0-3.2,0-6.3,0-9.4c-3.4,0-6.7,0-10.1,0c0,3.2,0,6.3,0,9.4
		c-1.4,0-2.7,0-4.1,0C0,21.3,0,14,0,6.8"/>
</g>
</svg>
